<svg width="312" height="83" viewBox="0 0 312 83" fill="none" xmlns="http://www.w3.org/2000/svg"><path d="M18.986 15C8.5 15 0 23.5 0 33.986s8.5 18.987 18.986 18.987q1.068-.001 1.977-.107V15.127A15 15 0 0 0 18.986 15" fill="#ff2056"/><path d="M36.374 30.84c-8.638 0-15.64-7.002-15.64-15.64v-.012h17.319v15.54q-.77.112-1.679.112" fill="#ff2056"/><path d="M39.634 68C50.12 68 58.62 59.5 58.62 49.014s-8.5-18.987-18.986-18.987q-1.067.001-1.977.107v37.739a15 15 0 0 0 1.977.127" fill="#ff2056"/><path d="M22.246 52.184c8.637 0 15.64 7.002 15.64 15.64H20.568v-15.53a12 12 0 0 1 1.68-.11" fill="#ff2056"/><path d="M77.216 64 93.6 18.56h10.176L120.16 64h-8.704l-3.776-10.752H89.696L85.92 64zm14.912-17.856h13.12l-6.528-19.2zm47.138 18.624q-5.12 0-8.896-2.176-3.776-2.24-5.888-6.272-2.048-4.032-2.048-9.408t2.048-9.344q2.112-4.032 5.888-6.272t8.896-2.24q4.351 0 7.744 1.536t5.504 4.416q2.175 2.816 2.687 6.912l-8.447.448q-.513-3.264-2.56-4.928-1.985-1.728-4.928-1.728-3.969 0-6.144 3.008-2.176 2.944-2.176 8.192 0 5.311 2.176 8.256 2.175 2.944 6.144 2.944 3.008 0 4.992-1.728 2.047-1.728 2.496-5.376l8.447.384q-.511 4.096-2.623 7.104t-5.504 4.672q-3.393 1.6-7.808 1.6m32.072 0q-5.376 0-8.64-2.432-3.264-2.496-3.264-6.912t2.752-6.912q2.751-2.496 8.384-3.584l11.328-2.24q0-3.648-1.664-5.44-1.665-1.856-4.928-1.856-2.944 0-4.672 1.408-1.665 1.344-2.304 3.904l-8.32-.384q1.023-5.44 4.992-8.32 3.968-2.944 10.304-2.944 7.296 0 11.008 3.712 3.776 3.647 3.776 10.496V55.68q0 1.344.448 1.856.512.512 1.472.512h1.087V64q-.383.128-1.279.192-.833.064-1.728.064-2.112 0-3.776-.64-1.665-.705-2.56-2.368-.896-1.729-.896-4.672l.704.512q-.513 2.24-2.24 4.032-1.665 1.728-4.224 2.688t-5.76.96m1.664-5.952q2.751 0 4.736-1.088 1.983-1.088 3.072-3.008t1.088-4.544v-1.92l-8.832 1.792q-2.753.576-3.968 1.728-1.152 1.087-1.152 2.88 0 1.985 1.28 3.072 1.344 1.088 3.776 1.088m37.201 5.952q-4.353 0-7.552-2.176-3.136-2.176-4.865-6.208-1.727-4.032-1.727-9.472t1.727-9.472q1.729-4.032 4.929-6.208 3.2-2.175 7.488-2.176 3.584 0 6.272 1.472 2.751 1.472 4.16 4.16V18.56h8.191V64h-7.807l-.192-5.056q-1.409 2.752-4.224 4.288-2.817 1.536-6.4 1.536m2.496-6.656q2.56 0 4.288-1.28 1.791-1.28 2.688-3.776.96-2.56.96-6.144 0-3.648-.96-6.144-.897-2.496-2.688-3.776-1.728-1.28-4.288-1.28-3.713 0-5.952 3.008-2.176 2.944-2.176 8.192 0 5.12 2.176 8.192 2.24 3.008 5.952 3.008M236.793 64V29.824h8.192V64zm-.128-38.72v-7.296h8.512v7.296zM255.627 64V28.48q0-4.608 2.56-7.232 2.624-2.688 8-2.688h6.656v6.336h-5.12q-1.984 0-2.944 1.024-.897 1.024-.896 3.008V64zm-4.864-26.944V30.72h21.632v6.336zM281.912 73.6v-6.336h4.352q1.664 0 2.432-.512.832-.511 1.28-1.728l.96-2.368h-2.368l-12.224-32.832h8.512l8.576 25.152 8.192-25.152h8.512l-13.376 37.76q-1.152 3.2-3.264 4.608-2.048 1.408-5.76 1.408z" fill="#1e2939"/></svg>